<svg enable-background="new 0 0 198.3 92.7" viewBox="0 0 198.3 92.7" xmlns="http://www.w3.org/2000/svg"><path d="m48.9 0 .1.2-.7.8v.2l-.3.3-.5 1.4-.2.5h-.2l-.3.3-.2.6-.2.4h-.2l-.6.8-.3.1-.3.3v.3l-1.2 1.2v.2l-.6.9-.1.2-.3.2v.4l-.2.3-.4-.1-.2.4-.2.7-.3.2-.1.3-.3.1h-.1l-.1.7h-.3-.2v.6l-.6.5v.1l-.1.1v.3l-.3.3-.6.7-.1.2-.1.1-.1.6-.6.9-.5.5v.3l-.3.4.1.1.4.1.1-.1v-.2l.2-.1v.4l-.3.2-.4-.3-.3.1-.3.3-.2.1-.1.3-.1-.1-.2.3.3.2-.4.2v.3l-.4.1v.4l-.4.4v.4l-.4-.1-.3.3.2.1v.4l-.3-.1-.1.3-.1.6.5.7-.3.2.4.5h-.5l-.3.4.1.3.4-.1-.1.6-.2.1v.4l-.5.6.1-1 .2-.1v-.3l-.3-.1-.3-.5-.6.3.2.6h.3l.1.1v.3l-.2.2-.3.4h-.1l.4-.9-.2-.1-.6.1-.1.2.1.1-.1.9.1.1h-.6v.3l.1.1-.3.2.1.5h.2l-.3.4v-.3l-.4-.2-.1.1-.3.1.2.3-.2.2v.1l.3.4.1.3-.4.3.1.2-.2.3h-.3l-.1-.1-.2.2v.2l.3.4.3-.1.2.2.3.1.1.2h.3l-.4.2.1.4-.1.2-.6-.1-.2-.3.5-.1.2-.2-.3-.1-.4.1v-.3l-.4.1-.1.2.1.5v.1.3.2l-.2.1.1.3.2.2v.8l-.5.9.1.3-.6.7-.5.9-.1.4h-.1l-.2.2-.1.6-.4.6v.1l-.2.2-.5.4v.6l.1.2.3-.1.1-.2.6.1-.1.3.1.2-.4.2v.3l-.5.2-.1-.1-.1.2.3.4-.1.3-.1-.1-.2.2v.3l-.1.1-.3-.2-.3.1v.3h.3l.2.2v.2l.2.3-.1.5.3.3-.1.4-.2.4.1.2-.2.3.1.3-.3-.2-.4.6h-.4l-.2.1.1.7.1.2v.3l-.2.3.2.2v.5l-.8-.2-.1.5.1.5-.1-.1-.2.3.2.1.2.1-.1.2v.2l-.5.6v.7h-.3l-.1.3-.2.6-.4.4v.3l-.2.2-.3.6.1.4-.2.3-.1.1-.2.2v.4h-.1v.3l-.4.4-.3 1-.8.2.4.3-.2.1-.2-.1-.4.4.3.1.1-.1.2.3-.5.4.1.4-.2.8h-.3l-.2.6v.4l-.3.3-.2.5-.3.5-.3.2.2.5-.6.7.2.4-.7 1.5-.4.5-.1.4-.3.6.2.1-.3.1-.2.6h-.3v.4l.3.2-.2.5-.3.1-.2.2v.4l-.3.7.2.2-.1.3-.2.5-.1.5-.3.9-.1.2-.1.5h-.2l-.1.3v.3l-.2.3-.1.4-.3.5v.7l-.4.4v1l-.4.7-.1.6-.5.7-.1.1.2.3-.4.8v.4l-.1.2-.1.6-.2.5-.3.4-.1.4-.4.7h-.3l-.5.6-.3.1-.2.3v.3l-.2.1-.2.1v.3l-.6.7h-.3l-.6.7.1.2-.2.2.1.2-.4.5v.2l-.1.2h-.3l-.4.5-.1.4-.5.1-.3.2-.2.1-.6.7-.4.3h-.4l-.2.2h-.4l-.9.8-.2.2-.8.1-.4.3h-.1l-.4.4-.8 1v.2l-.2-.1.6-1.2-.1-.2.2-1.4.1-.3v-.3l-.3-.4h-.2l-.1-.5.1-.3-.1-.2.2-.2-.1-.2.2-.3-.1-.2.3-1.9.2-.3-.1-.2.2-.4v-.4l.6-2.2.1-.8.2-.1.2.1.2-.3v-.7l.6-.8-.2-.6.2-.3.1-.5.4-.6-.1-.7.2-.2.3-.1-.2-.3.6-1.5h.1l.2-.1.1-.5.2-.1v-1.2l.3-.6h.2v-.5l.1-.3v-.6l.1-.6.3-.2.1-.7.3-.3.3-1 .2-.3-.1-.2.3-.5v-.3l.2-.1v-.4l.1-.1v-.3l.2-.3v-.4l.3-.3v-.4l.3-.3.1-.5.3-.3v-.5l.1-.2v-.2l.4-.2v-.7l.4-.4-.1-.5.1-.1.1-.5.7-1.7.1-.3.2.2.2.1v.4l-.3.4v.3l-.2.4-.1.7-.3.1v.4l-.2.3-.1.6-.2.2-.2.8-.1.2-.1.5-.7.9.2.3-.6 1.1v.5l.1.1.3.1-.5-.1-.1.1v.8l-.2.3v.3l-.1.2v.2l.5.5-.2.1h-.6l-.1.1.2.4-.1.2.2.2.2-.3v-.1l.3.1.3-.3.4-.3v-.7l.3-.3.1-.4.2-.5-.2-.3.6-.3.2-.9v-.5l.2-.6v-.2l.1-.3.2-.2.1-.2.3-.8.2-.2.2-.9.4-.7.1-.6h.2l.2-.7v-.4l.4-.3v-.5l.3-.1-.1-.4-.2-.1.2-.5.4-.1.1-.5-.2-.1.7-1v-.2l-.2-.1h-.2l-.1-.1.1-.3-.1-.1-.3.6.3.3-.5.9h-.4l.2-.4v-.2l.4-1.2.4-.7.2-.5.2-.2-.1-.6.3-.6h.2l.3-.2v-.5h.3l.2-.3-.2-.2v-.5l.6-.8v-.5l.3-.2h.4l.1-.2v-.3l-.1-.2.1-.4h.3l.1-.2-.2-.1v.1-.4l.4-.5v-.5l.1-.4-.2.1-.4.4-.2.6-.3.2v.5l-.4.3.1-.5.3-.6.3-.4.1-.3.7-1.1.1.2-.3.5.3.1.2-.2v-.2l.2-.3h.3l.2-.3-.1-.1.4-.4.1-.3.2-.3-.1-.1.2-.3.4-.5v-.4l.3-.3.1-.4.4-.5-.1-.3h-.4l-.2.2v.2l-.2.2v-.2l.4-.7.7-1.1h.1v.2l.3.4.3-.4.2-.1.2-.2v-.7l-.1-.1.2-.2-.3-.1-.6.7.2.4-.2-.1v-.4l1.4-2.2.6-.3.2-.5.4-.1.2-.1.2-.4-.3-.3.2-.2v-.2l.6-1 .1-.7.6-.1.2-.4-.2-.2h-.2l.3-.4.3.1.3-1 .1-.1.5-1.2.5-.5.5-.1h.1l.3-.1-.1-.3-.2-.1.1-.2-.1-.2.4-.4.3-.6h.4v.3l.1.2v.1l.3.1.2-.2.6-.9-.1-.3h-.3l.2-.3.3.1.2-.3-.2-.3.6-1.1h-.1.2l.3-.3.2.2.3-.3v-.4l-.1-.4.1-.1h.3l-.1-.3h-.2l-.2.2-.2-.3.2-.1.3-.6.3-.2.1-.5.2.5-.1.1.6.2v-.2l-.2-.2.2-.3.4.1.1-.3.7-.7.2-.6-.6-.3-.1.3.1.1-.7.4.1-.2.6-.7.4-.8h.2l-.1.6.2.1v.2l.1.1.3-.3v-.1l.7-.8.1-.4.2-.1.1-.3.6-.9.6-.7.3-.1.1-.8.3-.2.1-.3.6-.8v-.4l-.2.1-.2-.2h-.2l.1-.4.4-.1v.2l-.1.1.3.2h.3l.1-.4.4-.2.1-.4 1.1-1.3.1-.2h.1l.9-1.3.7-.9v-.2l-.4.1.3-.3.1-.2.1.2h.2l.9-.8v-.3l.3-.2.9-1.1 1.3-1.5.5-.7.5-.5v-.2l.3-.4.4-.1.4-.7h.2v.9l.6-.9.1-.2.4-.2.2-.2-.2-.3.4-.2z" fill="#90b8c7"/><path d="m45.3 2.5v.3l-.2.1v-.1z" fill="#90b8c7"/><path d="m44.8 3.2.2.1-.7.3-.1.1.2.2-.4-.1-.4.7h.2l.3-.3-.3.5-.7.7.1-.3-.1-.1-.5.7.2.2-.3.3h-.2l-.2-.2.5-1.1h.2l.3-.4.6-.7.2-.2.2-.2.4-.2.2.1z" fill="#90b8c7"/><path clip-rule="evenodd" d="m42.1 6.4v.2l-.2.1.1.1-.3.3-.3-.2.4-.3h.1z" fill="#90b8c7" fill-rule="evenodd"/><path d="m41 6.9h.2l-.2.2-.1.5-.2.1-.1.3h-.2l.5-.9z" fill="#90b8c7"/><path d="m40.1 8.2h.2l-.2.4-.2-.1z" fill="#90b8c7"/><path d="m40.1 8.9.1.1-.3.3h-.4l-.1.2h-.2l.2-.3.5.1z" fill="#90b8c7"/><path d="m38.9 9.6.2.3h.3l-.2.1-.1-.1-.3.4.2.2-.2.1v-.2l-.5.2.4-.7.1-.1z" fill="#90b8c7"/><path d="m37.6 11.3.1.1.1.2-.4.3v-.3z" fill="#90b8c7"/><path d="m35.6 14.3.2.1-.1.2-.2-.1z" fill="#90b8c7"/><path d="m34.9 15.3h.1l.1.7-.3.3v-.1l-.3-.4.3-.2z" fill="#90b8c7"/><path d="m34.1 16.8.4.1-.1.1-.2-.1-.3.4.1.2-.2.3-.2-.5.4-.4z" fill="#90b8c7"/><path d="m33.3 17.6.1.1v.2l-.2.2-.4-.1z" fill="#90b8c7"/><path d="m37.1 18.3.3.2v.4l-.5.3v.2h-.4v-.1l.3-.3.1-.6z" fill="#90b8c7"/><path d="m35.6 21.1.2-.1-.2.4-.1-.2z" fill="#90b8c7"/><path d="m35 21.7h.3l-.1.5-.2.2-.2-.2z" fill="#90b8c7"/><path d="m29.7 22.8-.2.9-.3-.1.2-.3.1-.3z" fill="#90b8c7"/><path d="m29 24 .1.3-.3.1v-.3z" fill="#90b8c7"/><path d="m28 25.3h.3l-.2.3-.2.1z" fill="#90b8c7"/><path d="m32.2 27.6.2.3-.1.4-.6.7h-.3z" fill="#90b8c7"/><path d="m31.5 29.2.1.1-.1.4-.2.1-.1-.3z" fill="#90b8c7"/><path d="m28.4 37.1.1-.1h.2l.4.2-.2.3-.4-.1-.2.2.2.8-.2-.1.1-.3-.2-.3.2-.2z" fill="#90b8c7"/><path d="m14.5 48.1.2.1-.1.4-.3-.1z" fill="#90b8c7"/><path d="m13.3 50.6-.3.9h-.1v-.4l.4-.3z" fill="#90b8c7"/><g fill="#fff"><path d="m60.8 56.9c-10.4 17.1-20.6 26.7-24.8 30.2 13.9-1.3 24.8-14 24.8-29.4 0-.3 0-.5 0-.8z"/><path clip-rule="evenodd" d="m60.7 54.6c-.7-7-3.6-13.2-8-17.9-1.2 2.4-3.1 6.8-4.4 9.7-.8 1.8-1.4 3-1.4 3-2.3 5.1-5.6 12.2-8.8 22.3-3.3 10.9 1.9 7.2 1.9 7.2 6.6-5.1 16.9-19.1 20.7-24.3z" fill-rule="evenodd"/><path d="m10.4 57.7c1.5-4.1 3.1-7.9 4.6-11.3 3.7-7.8 7.1-13.4 10-16.6-10.8 3.9-18.6 15-18.6 28 0 2.6.3 5.1.9 7.4l.2-.3v-.3l.2-.3.1-.4.2-.4.1-.5.3-.3v-.5l.1-.2.1-.3.4-.2-.1-.7.4-.4-.1-.4.2-.2.1-.5.7-1.6.1-.3z"/><path d="m27.3 40.2-.2.4.1.1v.3l-.2-.1-.2.2v.3l-.1.1-.1.3h.1v.3l.2.3-.1.5.3.3-.1.4-.3.4.1.2-.2.3.1.3-.2-.2-.5.6h-.4l-.2.2.1.7.2.2-.1.3-.2.3.2.2v.5l-.8-.2-.2.4.1.5-.1-.1-.2.3.2.1.2.1-.2.2v.2l-.5.6v.7h-.1l-.2.3-.2.6-.4.3v.4l-.2.2-.2.6.1.4-.2.3-.1.2-.2.2v.1c1.6-2.1 3.8-4.9 6.3-7.7 4.6-5.1 10.4-10.6 16.1-13.3.8-.4 1.4-.7 2.2-.9-3.3-2.2-8.3-3.9-13-3.9 0 0-2 2.9-5.2 8.9l.2.1-.1.3h-.3c-.2.5-.5 1-.8 1.6h.1l.1.2.1.2-.4.3v.2z"/><path d="m13.3 77.4c3.6 4.4 8.5 7.6 13.9 9 .1-6.9 5.2-26.6 12.6-40 6.2-10.8-2.8-3.3-2.8-3.3-1.3 1.1-2.6 2.2-3.7 3.3-8.5 7.8-12.7 14.5-12.7 14.5-1.7 2.4-2.9 4.4-3.9 6.3l.1.1-.2.5-.3.1-.1.1v.4l-.3.7.2.2-.1.3-.2.4-.2.5-.2.9-.2.3-.1.5h-.2l-.1.3v.3l-.2.3-.1.4-.3.5v.7l-.4.4v1l-.4.8z"/><path d="m76.4 65.1 12.1.1c2.7 0 5 0 7.1-.1 1.4-7.9 2-12.5 2-13.9 0-.3-.2-.6-.5-.9s-1.5-.4-3.6-.5l-.2-.2.1-1.1.3-.2 7.1.2c1.6 0 3.3-.1 5.2-.2l.2.2-.1 1.1-.2.2c-1.4.1-2.3.1-2.7.2s-.7.3-.9.8c-.2.4-.6 2.3-1.2 5.6s-1.2 6.4-1.7 9.4l-1.7 10.7c-.6 3.9-.9 6.2-.9 6.9 0 .3.2.6.5.8s1.6.3 3.6.4l.2.2-.1 1.1-.2.2-6.8-.1c-1.8 0-3.7.1-5.7.2l-.1-.2.1-1.1.2-.2c.9 0 1.9-.2 3.1-.5.3-.3.6-.9.8-2 .2-1 .7-3.4 1.3-7.2l1.3-7.6-10.1-.1c-.6 0-2.9 0-6.8.1l-2.3.1c-1.6 9.5-2.4 14.8-2.4 15.9 0 .3.2.6.5.8s1.6.3 3.6.4l.2.2.1 1.2-.2.2-6.8-.2c-1.8 0-3.6.1-5.6.2l-.2-.2.1-1.1.3-.2c1.5-.1 2.4-.2 2.8-.3s.7-.6 1-1.4.7-3.3 1.5-7.6l1.7-9.5 1.5-9.2c.5-2.8.7-4.6.7-5.4 0-.4-.2-.6-.5-.9-.3-.2-1.5-.4-3.6-.5l-.2-.2.1-1.1.2-.2 7.1.2c1.6 0 3.3-.1 5.2-.2l.2.2-.1 1.1-.2.2c-1.8 0-2.8.1-3.2.3s-.7.8-.9 1.8l-.9 4.6c-.1.9-.6 3.7-1.4 8.5z"/><path d="m121 80.2.3.7-.1.3c-4.4 3.7-8.1 5.5-11.1 5.5-1 0-2-.3-3-.8s-1.8-1.3-2.3-2.3-.8-2.3-.8-3.9c0-2.2.4-4.6 1.1-7.1s1.5-4.4 2.2-5.6 1.8-2.3 3.3-3.4 2.9-1.9 4.2-2.6c1.3-.6 2.6-1 3.8-1 1.3 0 2.4.4 3.3 1.1s1.3 1.7 1.3 3c0 1.4-.4 2.8-1.2 4s-2.3 2.4-4.5 3.5-4.8 2-7.8 2.7l-1.3.3c-.4 1.7-.5 3.1-.5 4.3 0 1.6.4 2.9 1.1 3.8s1.7 1.4 3 1.4c2.4 0 5.3-1.3 8.6-3.9zm-12.2-6.9c1.9-.3 3.6-.9 5.3-1.6s3-1.7 3.9-2.9 1.3-2.4 1.3-3.7c0-1-.2-1.7-.7-2.1-.5-.5-1.1-.7-1.7-.7-.7 0-1.6.2-2.6.6s-1.9 1.2-2.7 2.3c-.8 1.3-1.7 3.9-2.8 8.1z"/><path d="m143.5 80.7.2.7-.1.3c-3.7 3.2-6.3 4.8-7.6 4.8-.9 0-1.3-.6-1.3-1.7 0-.6.1-1.2.2-2.1.1-.8.3-1.8.5-2.8l.7-2.9.4-1.6-.2-.1c-2.6 3.8-5.1 6.6-7.4 8.5s-3.9 2.8-4.8 2.8c-1.2 0-1.9-1.5-1.9-4.6 0-1.9.3-4.1.9-6.5s1.3-4.7 2.1-6.7c.8-2.1 1.5-3.4 2-4.1.5-.6 1.3-1.4 2.5-2.2s2.3-1.5 3.3-1.9 2.2-.7 3.4-.7c1.5 0 3.2.3 4.9 1l1.7-1 .6.5c-.1.3-.4 1.6-1.1 4l-1.2 4.5-.7 2.6c-.5 1.9-.9 3.9-1.3 5.9s-.6 3.5-.6 4.2.2 1.1.7 1.1c.3 0 .7-.1 1.2-.4s1.4-.9 2.7-1.9zm-4.5-16.9c-1.3-.6-2.8-.9-4.4-.9-1.3 0-2.4.2-3.5.7-.4.3-.8.8-1.1 1.5-.4.7-.9 2.1-1.6 4-.7 2-1.3 4.1-1.7 6.3s-.7 4-.7 5.3c0 1 .1 1.6.3 1.9s.4.4.8.4c.6 0 1.9-.9 3.8-2.6s3.4-3.7 4.7-6 2.3-5.3 3.2-9.1z"/><path d="m156.2 46.8.7.5c-.7 2.9-2.1 9.7-4.3 20.3-1.6 7.6-2.5 12.1-2.7 13.6 0 .3-.1.6-.1.9 0 .4.1.7.3.9s.4.3.6.3c.6 0 1.9-.7 3.8-2.2l.8-.6.3.1.3.7-.1.3c-4.3 3.5-7.2 5.2-8.7 5.2-.5 0-.9-.2-1.2-.6s-.4-.9-.4-1.6.1-1.7.3-2.8 1-4.7 2.3-10.8c1.3-5.7 2.1-10 2.6-12.8l.9-5.3c.1-.7.2-1.3.2-1.7s-.1-.7-.4-.9-.8-.2-1.4-.2h-2.2l-.2-.2.1-.7.2-.2c3.2-.7 6-1.4 8.3-2.2z"/><path d="m171.1 80 .3.6-.1.3c-.7.6-1.9 1.5-3.6 2.8-1.7 1.2-2.9 2.1-3.7 2.5s-1.4.6-2 .6c-.5 0-.9-.2-1.2-.7s-.5-1.2-.5-2.1c0-1 .3-2.9.9-5.6.7-3.1 1.6-7.6 2.7-13.3l-4.3.1-.2-.2.1-.5.2-.2c1.9-.7 3.4-1.3 4.6-1.9.3-1.6.8-4.6 1.4-9.2 1.9-.8 3.3-1.4 4.2-1.9l.6.5-1 4.1c-.1.5-.6 2.8-1.4 6.9.8.1 1.4.1 1.9.1 1.8 0 3-.1 3.7-.4l.3.2-.6 2.6c-.7 0-2.6 0-5.8-.1-2 9.5-3 15-3 16.7 0 .8.3 1.2 1 1.2.3 0 .8-.1 1.3-.4.6-.3 1.5-.9 2.9-2l.9-.7z"/><path d="m184.8 46.8.7.5c-.7 3.2-2.5 11.2-5.2 24.1l.2.1c3.3-4.3 6.2-7.2 8.8-8.8 2.6-1.5 4.6-2.3 5.9-2.3.4 0 .8.2 1.1.5s.4.7.4 1.1c0 .6-.3 2.1-.8 4.3-.7 2.8-1.5 6-2.3 9.5-.8 3.6-1.2 5.7-1.2 6.4 0 .3.1.5.2.7s.3.2.4.2c.4 0 1-.2 1.7-.7s1.7-1.1 2.8-2l.3.1.3.7-.1.3c-1.5 1.2-3.1 2.4-5 3.6-1.8 1.2-3 1.7-3.6 1.7-.4 0-.7-.2-.9-.6s-.4-.9-.4-1.6c0-.5 0-.8.1-1.1s.4-1.6.9-4l1.5-6.6c1-4.3 1.6-6.9 1.6-7.9 0-.6-.4-1-1.1-1-.5 0-1 .1-1.5.3-1.1.5-2.4 1.5-4 2.9-1.2 1.1-2.4 2.4-3.5 4-1.1 1.5-1.9 3.1-2.5 4.7-.5 1.2-.9 2.8-1.3 4.6l-1 5.3c-2.2.4-3.4.7-3.7.9l-.3-.4c2.7-10.2 4.7-19.5 6.1-28.1l.9-5.4c.1-.7.2-1.2.2-1.7 0-.4-.1-.6-.4-.8-.2-.2-.7-.3-1.5-.3h-2.2l-.2-.2.1-.7.2-.2c3.3-.6 6-1.3 8.3-2.1z"/><path d="m77 33.7c.3-1.1.4-1.8.4-2.2 0-.2 0-.3-.1-.3-.1-.1-.3-.1-.6-.1v-.1-.4-.1c.5 0 .9.1 1.1.1h.8v.1.4.1c-.2 0-.4 0-.4.1s-.2.5-.4 1.3l-1.5 6.1c-.1.5-.3 1.3-.5 2.2h-.8c-.1-.7-.2-1.3-.3-2l-.9-5.4-2.2 7.4h-.7l-.2-4.3c-.1-1.5-.2-2.6-.2-3.5-.1-.8-.1-1.4-.1-1.6s-.1-.3-.1-.3c-.1 0-.2-.1-.5-.1v-.1-.4-.1h1.3 1.2v.1.4.1c-.3 0-.5 0-.6.1s-.1.2-.1.5 0 1 .1 2l.3 4.8.8-2.8 1.5-5.2h.3l1.3 8.2z"/><path d="m81.9 39.2.1.3v.1c-.5.6-.9 1-1.1 1.2s-.4.3-.5.3-.2-.1-.2-.2c-.1-.1-.1-.3-.1-.5s0-.5.1-.9c0-.4.1-1.1.3-2.1-.5 1.4-.9 2.3-1.3 2.9-.4.5-.7.8-1 .8-.1 0-.3-.1-.3-.3s-.1-.5-.1-1.1c0-.4 0-1 .1-1.6s.2-1.2.3-1.8c.1-.3.2-.6.3-.7.1-.2.3-.5.7-.9.3-.4.6-.7.7-.7.1-.1.3-.1.5-.1.1 0 .3 0 .5.1s.3.2.5.3l.4-.4.1.2c-.1.3-.2.8-.3 1.6l-.3 2.3c-.1.9-.2 1.4-.2 1.6s0 .3.1.3c.1-.1.3-.3.7-.7zm-1.2-4.3c-.3-.2-.5-.3-.7-.3s-.4.1-.6.4c-.1.3-.3 1-.5 2s-.2 1.8-.2 2.3c0 .4.1.5.2.5s.3-.3.7-.9c.3-.6.6-1.3.8-2 .1-.7.3-1.4.3-2z"/><path d="m82.8 38.6h.2v.1.6c.1.2.3.4.5.6s.4.3.6.3.3 0 .4-.1.2-.2.3-.4.1-.4.1-.6 0-.3-.1-.5c-.1-.1-.1-.2-.2-.3s-.2-.2-.4-.2c-.3-.1-.5-.2-.6-.3s-.2-.2-.3-.3-.2-.3-.2-.5c-.1-.2-.1-.5-.1-.7 0-.3 0-.5.1-.7s.1-.4.3-.6c.1-.2.3-.4.5-.6s.4-.4.6-.5c.1-.1.3-.1.5-.1.4 0 .8.2 1.1.5-.1.5-.1 1-.2 1.7v.1h-.2v-.1-.7c-.1-.2-.3-.4-.5-.5s-.4-.2-.5-.2c-.2 0-.4.1-.5.3s-.2.4-.2.7.1.6.2.7.4.3.8.4c.3.1.5.2.6.3s.2.3.3.5.1.5.1.8 0 .6-.1.9-.3.5-.5.9c-.3.3-.5.6-.7.7s-.5.2-.8.2c-.2 0-.3 0-.5-.1-.2 0-.4-.2-.7-.3v-.1c0-.2.1-.5.1-.9-.1-.4 0-.7 0-1z"/><path d="m88.6 30 .1.2c-.4 2.9-.7 5.2-.9 6.9.4-1 .8-1.9 1.3-2.4.5-.6.9-.9 1.2-.9.2 0 .4.2.4.6 0 .2 0 .5-.1.8 0 .3-.2 1-.3 2.1-.2 1.2-.3 2-.3 2.3 0 .2 0 .3.1.3s.1 0 .2-.1.2-.2.4-.5h.1l.1.3v.1c-.5.6-.9 1-1.1 1.2s-.4.3-.5.3-.2-.1-.2-.2c-.1-.1-.1-.3-.1-.6 0-.2 0-.4 0-.6s.1-.7.2-1.3c.3-1.7.4-2.7.4-3 0-.2-.1-.3-.2-.3s-.2.1-.3.2c-.2.2-.4.6-.7 1.1-.2.5-.4 1-.6 1.6-.1.4-.2.9-.3 1.6-.1.5-.1.8-.1 1.1-.1 0-.2 0-.5.1-.2.1-.4.1-.5.2l-.1-.1c.2-1 .4-2.4.6-4.2.2-1.7.3-3.1.4-4l.1-.8c0-.2 0-.4 0-.5s0-.2-.1-.3-.1-.1-.2-.1-.2 0-.4 0v-.1-.3-.1c.7 0 1.3-.3 1.9-.6z"/><path d="m91.3 35.9-.1-.3v-.1c.5-.7.9-1.1 1.2-1.4s.5-.4.7-.4c.1 0 .1.1.2.2s.1.2.1.4 0 .5-.1.8c0 .3-.1.9-.3 1.8-.3 1.5-.4 2.4-.4 2.7v.2c0 .1.1.1.1.1.1 0 .3-.2.7-.7h.1l.1.3v.1c-.2.2-.4.5-.7.8s-.5.5-.6.6c-.1 0-.3 0-.3 0-.1 0-.2-.1-.3-.2s-.1-.3-.1-.5 0-.5.1-.7.1-.8.2-1.5c.2-1.5.4-2.4.4-2.7 0-.1 0-.2-.1-.2-.2 0-.4.2-.9.7zm1.4-4.4c0-.3.1-.5.2-.8.1-.2.3-.3.4-.3.2 0 .3.1.4.2.1.2.1.3.1.6s-.1.6-.2.8-.3.4-.4.4c-.2 0-.3-.1-.4-.3-.1-.1-.1-.3-.1-.6z"/><path d="m94.4 41-.1-.2c.1-.4.2-1 .4-1.9.1-.9.2-1.6.3-2.3 0-.6 0-1 0-1.2s0-.2-.1-.2-.3.2-.6.6h-.1l-.1-.3v-.1c.2-.2.3-.4.5-.7s.4-.5.5-.6c.2-.2.3-.3.4-.3s.2-.1.2-.1c.2 0 .2.2.2.5 0 .2 0 .6-.1 1s-.2 1.2-.3 2.2c.3-1 .7-1.9 1.2-2.6s.9-1.1 1.2-1.1c.2 0 .4.2.4.7 0 .2 0 .6-.1 1.1s-.2 1.1-.3 2c-.1.6-.2 1.1-.2 1.4s-.1.5-.1.6c0 .2 0 .3.1.3s.3-.2.6-.6h.1l.1.3v.1c-.5.6-.9 1-1.1 1.2 0 .1-.2.2-.4.2-.1 0-.2-.1-.2-.2 0-.2-.1-.3-.1-.5 0-.4.1-1.2.3-2.4.2-1.3.3-2.1.3-2.5 0-.2-.1-.3-.2-.3s-.1 0-.2.1-.2.3-.4.6-.3.6-.5 1c-.1.4-.3.8-.4 1.2s-.2.9-.3 1.4-.1.9-.1 1.2c-.3.2-.6.3-.8.4z"/><path d="m100.2 40.6c-.2-.2-.2-.5-.2-.7 0-.1 0-.1 0-.2s0-.1 0-.1 0 0 .1-.1c.4-.4.6-.6.7-.8h-.2c-.3 0-.6-.1-.9-.4-.2-.3-.4-.8-.4-1.4 0-.3 0-.6.1-.9s.1-.6.2-.8.2-.4.3-.5.3-.3.5-.4c.2-.2.4-.3.6-.4s.3-.1.4-.1h.3c.1 0 .2 0 .2.1 0 0 .1.1.2.1l.1.1h.3.4.4.2v.1l-.1.8c-.1 0-.2 0-.3-.1-.2 0-.3 0-.3 0h-.1c.1.2.1.5.1.8s0 .7-.1 1-.2.6-.3.8-.2.4-.4.5c-.1.1-.3.3-.6.4-.2.1-.3.2-.4.3s-.1.2-.2.2c0 .1-.1.2-.1.3s0 .2.1.3.2.3.5.7c.4.5.7.9.8 1.1.1.3.2.6.2 1 0 .8-.2 1.4-.7 1.8-.4.5-1 .7-1.6.7-.4 0-.7-.1-1-.2-.3-.2-.5-.4-.6-.7s-.2-.6-.2-1 .1-.8.3-1.2.6-.7 1.1-1zm.2.2-.4.3c-.1.1-.2.2-.3.3s-.2.2-.2.4c-.1.1-.1.3-.1.4v.5c0 .3.1.6.2.8s.3.4.4.5c.2.1.4.2.6.2.4 0 .6-.1.9-.4.2-.3.3-.6.3-1 0-.2-.1-.4-.2-.7-.1-.1-.5-.5-1.2-1.3zm0-4c0 .5.1.8.2 1s.3.3.5.3.4-.1.5-.3.2-.5.3-1c.1-.4.1-.8.1-1.2 0-.5-.1-.8-.2-1s-.3-.3-.5-.3c-.3 0-.5.3-.7.8-.1.5-.2 1.1-.2 1.7z"/><path d="m104.8 34.8h-.9v-.1-.3l.1-.1c.2-.1.6-.3 1-.5 0-.1 0-.3.1-.7.1-.5.1-1 .1-1.3.2-.1.4-.2.8-.4.2-.1.3-.2.3-.2l.1.2c-.1.5-.2 1.3-.4 2.6h.5c.4 0 .6 0 .7-.1v.1c0 .2-.1.4-.1.7l-.1.1c-.2 0-.5-.1-.7-.1h-.5c0 .4-.1.9-.2 1.4l-.2 1.4-.1 1.1c0 .3-.1.5-.1.6v.2c0 .1 0 .2.1.3s.1.1.1.1c.1 0 .1 0 .2-.1.1 0 .1-.1.2-.2s.3-.3.5-.6h.1l.1.3v.1c-.7.8-1.1 1.3-1.3 1.5s-.4.3-.5.3c-.2 0-.3-.1-.4-.3s-.1-.4-.1-.7c0-.2 0-.4 0-.7s.1-.9.2-1.9c.3-1.7.4-2.6.4-2.7z"/><path d="m107 38.7c0-.4 0-1 .1-1.7s.2-1.2.5-1.7c.2-.5.5-.8.9-1.2.4-.3.8-.5 1.2-.5s.8.2 1 .6c.3.4.4 1 .4 1.7s-.1 1.4-.2 2.2c-.2.7-.4 1.3-.6 1.6s-.5.6-.8.9c-.3.2-.6.4-1 .4s-.6-.1-.8-.3-.3-.5-.4-.9c-.2-.3-.3-.7-.3-1.1zm1.1 0c0 .6.1 1 .2 1.3s.3.4.6.4c.2 0 .3-.1.5-.2.1-.2.3-.4.4-.8s.2-.9.3-1.5.1-1.2.1-1.7c0-.6-.1-1.1-.2-1.3s-.3-.4-.5-.4-.4.1-.6.4-.3.8-.5 1.7c-.3.7-.3 1.4-.3 2.1z"/><path d="m112 41-.1-.2c.1-.4.2-1 .4-1.9.1-.9.2-1.6.3-2.3.1-.6.1-1.1.1-1.2 0-.2 0-.2-.1-.2s-.3.2-.6.6h-.1l-.1-.3v-.1c.2-.2.3-.4.5-.7s.4-.5.5-.6c.2-.2.3-.3.4-.3s.2-.1.2-.1c.2 0 .2.2.2.5 0 .2 0 .6-.1 1s-.2 1.2-.3 2.2c.3-1 .7-1.9 1.2-2.6s.9-1.1 1.2-1.1c.2 0 .4.2.4.7 0 .2 0 .6-.1 1.1s-.2 1.1-.3 2c-.1.6-.2 1.1-.2 1.4s-.1.5-.1.6c0 .2 0 .3.1.3s.3-.2.6-.6h.1l.1.3v.1c-.5.6-.9 1-1.1 1.2s-.4.3-.6.3c-.1 0-.2-.1-.2-.2 0-.2-.1-.3-.1-.5 0-.4.1-1.2.3-2.4.2-1.3.3-2.1.3-2.5 0-.2-.1-.3-.2-.3s-.1 0-.2.1-.2.3-.4.6-.3.6-.5 1c-.1.4-.3.8-.4 1.2s-.2.9-.3 1.4-.1.9-.1 1.2c-.1.1-.5.2-.7.3z"/><path d="m123.4 33.2-.3.1v-.1c0-.2 0-.3 0-.4v-.7c-.1-.3-.3-.5-.5-.6s-.4-.2-.7-.2c-.2 0-.5.1-.7.2-.2.2-.4.4-.5.7s-.2.7-.2 1.1c0 .3 0 .5.1.7s.1.3.2.5c.1.1.2.2.3.3s.3.1.7.3c.3.1.5.2.7.3s.3.2.4.4.2.4.3.7.1.6.1.9c0 .6-.1 1.3-.4 1.9-.2.6-.6 1.1-.9 1.4-.4.4-.8.5-1.3.5-.3 0-.6-.1-.9-.2s-.5-.3-.7-.6v-.1c0-.1.1-.5.1-1.1.1-.6.1-.9.1-1.1v-.1h.2v.1.8.4c.1.2.3.4.5.7.3.2.5.3.8.3.5 0 .8-.2 1-.6s.3-.9.3-1.4c0-.2 0-.4-.1-.6 0-.2-.1-.3-.2-.4s-.2-.2-.2-.2-.2-.1-.4-.2c-.5-.2-.8-.4-1-.5-.2-.2-.4-.4-.5-.8s-.2-.8-.2-1.3c0-.7.1-1.4.4-1.9s.5-1 .9-1.3.8-.5 1.2-.5c.5 0 1 .2 1.4.6v.1c.1.5 0 1.2 0 1.9z"/><path d="m125.2 34.8h-.9v-.1-.3l.1-.1c.2-.1.6-.3 1-.5 0-.1 0-.3.1-.7.1-.5.1-1 .1-1.3.2-.1.4-.2.8-.4.2-.1.3-.2.3-.2l.1.2c-.1.5-.2 1.3-.4 2.6h.5c.4 0 .6 0 .7-.1v.1c0 .2-.1.4-.1.7l-.1.1c-.2 0-.5-.1-.7-.1h-.5c0 .4-.1.9-.2 1.4l-.2 1.4-.1 1.1c0 .3-.1.5-.1.6v.2c0 .1 0 .2.1.3 0 .1.1.1.1.1.1 0 .1 0 .2-.1s.1-.1.2-.2.3-.3.5-.6h.1l.1.3v.1c-.7.8-1.1 1.3-1.3 1.5s-.4.3-.5.3c-.2 0-.3-.1-.4-.3s-.1-.4-.1-.7c0-.2 0-.4 0-.7s.1-.9.2-1.9c.3-1.7.4-2.6.4-2.7z"/><path d="m131.7 39.2.1.3v.1c-.5.6-.9 1-1.1 1.2s-.4.3-.5.3-.2-.1-.2-.2c-.1-.1-.1-.3-.1-.5s0-.5.1-.9c0-.4.1-1.1.3-2.1-.5 1.4-.9 2.3-1.3 2.9-.4.5-.7.8-1 .8-.1 0-.3-.1-.3-.3-.1-.2-.1-.5-.1-1.1 0-.4 0-1 .1-1.6s.2-1.2.3-1.8c.1-.3.2-.6.3-.7.1-.2.3-.5.7-.9.3-.4.6-.7.7-.7.1-.1.3-.1.5-.1.1 0 .3 0 .5.1s.3.2.5.3l.4-.4.1.2c-.1.3-.2.8-.3 1.6l-.4 2.3c-.1.9-.2 1.4-.2 1.6s0 .3.1.3c.2-.1.4-.3.8-.7zm-1.2-4.3c-.3-.2-.5-.3-.7-.3s-.4.1-.6.4c-.1.3-.3 1-.5 2s-.2 1.8-.2 2.3c0 .4.1.5.2.5s.3-.3.7-.9c.3-.6.6-1.3.8-2 .1-.7.2-1.4.3-2z"/><path d="m133.2 34.8h-.9v-.1-.3l.1-.1c.2-.1.6-.3 1-.5 0-.1 0-.3.1-.7.1-.5.1-1 .1-1.3.2-.1.4-.2.8-.4.2-.1.3-.2.3-.2l.1.2c-.1.5-.2 1.3-.4 2.6h.5c.4 0 .6 0 .7-.1v.1c0 .2-.1.4-.1.7l-.1.1c-.2 0-.5-.1-.7-.1h-.5c0 .4-.1.9-.2 1.4l-.2 1.4-.1 1.1c0 .3-.1.5-.1.6v.2c0 .1 0 .2.1.3s.1.1.1.1c.1 0 .1 0 .2-.1s.1-.1.2-.2.3-.3.5-.6h.1l.1.3v.1c-.7.8-1.1 1.3-1.3 1.5s-.4.3-.5.3c-.2 0-.3-.1-.4-.3s-.1-.4-.1-.7c0-.2 0-.4 0-.7s.1-.9.2-1.9c.2-1.7.4-2.6.4-2.7z"/><path d="m138.1 39.1.1.3v.1c-.5.6-.9 1-1.2 1.2s-.6.3-.8.3-.4-.1-.6-.2-.3-.4-.4-.6c-.1-.3-.1-.6-.1-.9 0-.5.1-1.2.2-2s.3-1.4.5-1.8.5-.8.9-1.2.8-.6 1.1-.6.5.1.6.3c.2.2.2.5.2.9 0 .5-.1.9-.3 1.3s-.5.7-.9 1-.8.5-1.3.6v1c0 .5.1.8.2 1s.3.3.5.3c.1 0 .3 0 .4-.1.2-.1.3-.2.4-.3 0-.1.2-.3.5-.6zm-2-1.6c.6-.2 1-.6 1.2-1 .2-.5.3-.9.3-1.3 0-.2 0-.4-.1-.5s-.2-.2-.3-.2c-.2 0-.4.2-.6.6s-.3 1.2-.5 2.4z"/><path d="m141.8 30.7h1.5 1.7c.7 0 1.3.2 1.7.5s.7.8.8 1.4c.2.6.3 1.3.3 2 0 .9-.1 1.9-.4 2.8-.2 1-.7 1.8-1.2 2.5-.6.7-1.2 1-2 1-.2 0-.4 0-.8 0s-.6 0-.8 0c-.5 0-.9 0-1.3 0v-.1-.4-.1l.1-.1c.2-.1.3-.1.3-.2s.1-.5.2-1.2.2-2 .4-3.9.3-3 .3-3.4c0-.1 0-.2-.1-.3 0-.1-.1-.1-.1-.1-.1 0-.3 0-.6-.1v-.1zm1.1 9.2.6.1c.3.1.5.1.7.1.3 0 .6-.1.8-.2s.4-.4.6-.7.3-.7.4-1.1.2-1 .3-1.7.1-1.4.1-2.1c0-.4 0-.9-.1-1.2-.1-.4-.1-.6-.3-.9-.1-.2-.2-.4-.4-.6-.2-.1-.3-.2-.5-.3s-.4-.1-.6-.1c-.3 0-.6 0-.9.1 0 .2-.1.7-.2 1.5l-.4 3.5c0 1.8-.1 3-.1 3.6z"/><path d="m151.4 39.1.1.3v.1c-.5.6-.9 1-1.2 1.2s-.6.3-.8.3-.4-.1-.6-.2-.3-.4-.4-.6c-.1-.3-.1-.6-.1-.9 0-.5.1-1.2.2-2s.3-1.4.5-1.8.5-.8.9-1.2.8-.6 1.1-.6.5.1.6.3c.2.2.2.5.2.9 0 .5-.1.9-.3 1.3s-.5.7-.9 1-.8.5-1.3.6v1c0 .5.1.8.2 1s.3.3.5.3c.1 0 .3 0 .4-.1.2-.1.3-.2.4-.3-.1-.1.1-.3.5-.6zm-2.1-1.6c.6-.2 1-.6 1.2-1 .2-.5.3-.9.3-1.3 0-.2 0-.4-.1-.5s-.2-.2-.3-.2c-.2 0-.4.2-.6.6-.1.4-.3 1.2-.5 2.4z"/><path d="m152.2 35.5v-.1c.2-.3.5-.6.7-.9s.4-.5.6-.6c.1-.1.3-.2.4-.2.2 0 .3.2.3.5 0 .2 0 .5-.1.9s-.1 1-.3 1.8c.2-.6.5-1.1.7-1.5s.5-.7.8-1.1.6-.5.9-.5c.1 0 .2.1.3.2s.1.3.2.6c0 .3.1.6.1.9 0 .6-.1 1.2-.2 2-.1.7-.3 1.2-.4 1.6-.1.3-.3.6-.6 1-.3.3-.6.6-.8.7-.2.2-.4.2-.7.2-.2 0-.4 0-.5-.1-.1.5-.1 1-.2 1.7s-.1 1.1-.2 1.3v.7c-.1 0-.2 0-.5.1s-.4.1-.5.2l-.1-.1.4-2.5c.1-.9.3-2.1.5-3.7.2-1.5.3-2.5.3-2.9 0-.1 0-.2 0-.3s0-.2 0-.2c0-.1-.1-.1-.1-.1s-.1 0-.2.1-.2.3-.5.6h-.1zm1.3 4.4c.3.3.6.4.8.4.1 0 .3 0 .4-.1s.2-.3.3-.6.2-.6.3-1.1.2-.9.2-1.3c.1-.4.1-.9.1-1.3 0-.3 0-.5-.1-.6 0-.1-.1-.2-.2-.2s-.2.1-.4.2-.3.4-.5.7-.4.7-.5 1.2c-.1.4-.2.8-.3 1.1.1.1 0 .7-.1 1.6z"/><path d="m161.2 39.2.1.3v.1c-.5.6-.9 1-1.1 1.2s-.4.3-.5.3-.2-.1-.2-.2c-.1-.1-.1-.3-.1-.5s0-.5.1-.9c0-.4.1-1.1.3-2.1-.5 1.4-.9 2.3-1.3 2.9-.4.5-.7.8-1 .8-.1 0-.3-.1-.3-.3-.1-.2-.1-.5-.1-1.1 0-.4 0-1 .1-1.6s.2-1.2.3-1.8c.1-.3.2-.6.3-.7.1-.2.3-.5.7-.9.3-.4.6-.7.7-.7.1-.1.3-.1.5-.1.1 0 .3 0 .5.1s.3.2.5.3l.4-.4.1.2c-.1.3-.2.8-.3 1.6l-.3 2.4c-.1.9-.2 1.4-.2 1.6s0 .3.1.3c0-.2.2-.4.7-.8zm-1.3-4.3c-.3-.2-.5-.3-.7-.3s-.4.1-.6.4c-.1.3-.3 1-.5 2s-.2 1.8-.2 2.3c0 .4.1.5.2.5s.3-.3.7-.9c.3-.6.6-1.3.8-2s.3-1.4.3-2z"/><path d="m161.7 41-.1-.2c.2-1.3.4-2.4.5-3.3s.2-1.6.2-2c0-.2 0-.4-.1-.4s-.3.2-.6.6h-.1l-.1-.2v-.1c.5-.7.9-1.1 1.1-1.4.2-.2.4-.3.5-.3s.1.1.2.2c0 .1.1.2.1.4v.5c0 .2-.1 1-.3 2.4h.1c.1-.5.3-1 .4-1.5.2-.5.3-.9.5-1.2.1-.3.3-.5.4-.6s.2-.1.4-.1c.1 0 .2 0 .2.1v.1c0 .2-.1.5-.1 1 0 .4-.1.7-.1 1l-.1.1c-.1-.2-.3-.3-.5-.3-.1 0-.3.1-.4.2-.1.2-.3.5-.4 1-.2.5-.3 1.1-.4 1.7-.1.7-.2 1.4-.2 2.1-.2 0-.3.1-.5.1-.3 0-.4 0-.6.1z"/><path d="m166.1 34.8h-.9v-.1-.3l.1-.1c.2-.1.6-.3 1-.5 0-.1 0-.3.1-.7.1-.5.1-1 .1-1.3.2-.1.4-.2.8-.4.2-.1.3-.2.3-.2l.1.2c-.1.5-.2 1.3-.4 2.6h.5c.4 0 .6 0 .7-.1v.1c0 .2-.1.4-.1.7l-.1.1c-.2 0-.5-.1-.7-.1h-.5c0 .4-.1.9-.2 1.4l-.2 1.4-.1 1.1c0 .3-.1.5-.1.6v.2c0 .1 0 .2.1.3 0 .1.1.1.1.1.1 0 .1 0 .2-.1s.1-.1.2-.2.3-.3.5-.6h.1l.1.3v.1c-.7.8-1.1 1.3-1.3 1.5s-.4.3-.5.3c-.2 0-.3-.1-.4-.3s-.1-.4-.1-.7c0-.2 0-.4 0-.7s.1-.9.2-1.9c.3-1.7.4-2.6.4-2.7z"/><path d="m168.5 41-.1-.2s0-.2.1-.6c.1-.8.3-1.6.4-2.7.1-1 .2-1.7.2-2.1 0-.1 0-.2 0-.2 0-.1-.1-.1-.1-.1s-.1 0-.1.1c-.1.1-.2.3-.5.6h-.1l-.1-.3v-.1c.2-.3.5-.6.7-1 .3-.3.5-.6.6-.7s.2-.1.3-.1.1 0 .2.1c0 .1.1.2.1.3s0 .4-.1.7c0 .3-.2 1.2-.4 2.6.4-1.2.8-2.1 1.3-2.8s.9-1 1.2-1c.1 0 .2.1.2.2.1.1.1.2.1.4v.6c0 .3-.1.6-.1 1.1l-.2 1.5c.4-1.2.8-2.1 1.3-2.8s.9-1 1.3-1c.1 0 .2.1.2.2.1.1.1.3.1.5 0 .3-.1.8-.2 1.5-.3 2-.5 3.3-.5 3.6 0 .2 0 .2.1.2s.3-.2.7-.7h.1l.1.3v.1c-.5.6-.8 1-1.1 1.2-.2.2-.4.3-.6.3-.1 0-.2-.1-.2-.2-.1-.1-.1-.3-.1-.5s0-.5.1-.9.1-1 .3-1.8c.1-.8.2-1.3.2-1.6s.1-.5.1-.6c0-.2 0-.3-.1-.3s-.2.1-.3.2-.3.4-.5.8-.4.8-.5 1.3c-.2.5-.3 1.1-.4 1.9s-.2 1.2-.2 1.5c-.2 0-.5.1-.9.2l-.1-.2c.2-.7.3-1.6.5-2.9.2-1.2.3-2 .3-2.5 0-.1 0-.2 0-.2 0-.1-.1-.1-.1-.1-.1 0-.2.1-.3.2-.1.2-.3.5-.5.9s-.4.9-.5 1.4c-.2.5-.3 1-.4 1.7s-.1 1.1-.2 1.4c-.5.3-.9.4-1.3.6z"/><path d="m178.7 39.1.1.3v.1c-.5.6-.9 1-1.2 1.2s-.6.3-.8.3-.4-.1-.6-.2-.3-.4-.4-.6c-.1-.3-.1-.6-.1-.9 0-.5.1-1.2.2-2s.3-1.4.5-1.8.5-.8.9-1.2.8-.6 1.1-.6.5.1.6.3c.2.2.2.5.2.9 0 .5-.1.9-.3 1.3s-.5.7-.9 1-.8.5-1.3.6v1c0 .5.1.8.2 1s.3.3.5.3c.1 0 .3 0 .4-.1.2-.1.3-.2.4-.3 0-.1.2-.3.5-.6zm-2-1.6c.6-.2 1-.6 1.2-1 .2-.5.3-.9.3-1.3 0-.2 0-.4-.1-.5s-.2-.2-.3-.2c-.2 0-.4.2-.6.6s-.3 1.2-.5 2.4z"/><path d="m179.5 41-.1-.2c.1-.4.2-1 .4-1.9s.2-1.6.3-2.3c.1-.6.1-1.1.1-1.2 0-.2 0-.2-.1-.2s-.3.2-.6.6h-.1l-.1-.3v-.1c.2-.2.3-.4.5-.7s.4-.5.5-.6c.2-.2.3-.3.4-.3s.2-.1.2-.1c.2 0 .2.2.2.5 0 .2 0 .6-.1 1s-.2 1.2-.3 2.2c.3-1 .7-1.9 1.2-2.6s.9-1.1 1.2-1.1c.2 0 .4.2.4.7 0 .2 0 .6-.1 1.1s-.2 1.1-.3 2c-.1.6-.2 1.1-.2 1.4s-.1.5-.1.6c0 .2 0 .3.1.3s.3-.2.6-.6h.1l.1.3v.1c-.5.6-.9 1-1.1 1.2s-.4.3-.6.3c-.1 0-.2-.1-.2-.2 0-.2-.1-.3-.1-.5 0-.4.1-1.2.3-2.4.2-1.3.3-2.1.3-2.5 0-.2-.1-.3-.2-.3s-.1 0-.2.1-.2.3-.4.6-.3.6-.5 1c-.1.4-.3.8-.4 1.2s-.2.9-.3 1.4-.1.9-.1 1.2c-.1.1-.4.2-.7.3z"/><path d="m185.5 34.8h-.9v-.1-.3l.1-.1c.2-.1.6-.3 1-.5 0-.1 0-.3.1-.7.1-.5.1-1 .1-1.3.2-.1.4-.2.8-.4.2-.1.3-.2.3-.2l.1.2c-.1.5-.2 1.3-.4 2.6h.5c.4 0 .6 0 .7-.1v.1c0 .2-.1.4-.1.7l-.1.1c-.2 0-.5-.1-.7-.1h-.5c0 .4-.1.9-.2 1.4l-.2 1.4-.1 1.1c0 .3-.1.5-.1.6v.2c0 .1 0 .2.1.3 0 .1.1.1.1.1.1 0 .1 0 .2-.1s.1-.1.2-.2.3-.3.5-.6h.1l.1.3v.1c-.7.8-1.1 1.3-1.3 1.5s-.4.3-.5.3c-.2 0-.3-.1-.4-.3s-.1-.4-.1-.7c0-.2 0-.4 0-.7s.1-.9.2-1.9c.3-1.7.4-2.6.4-2.7z"/><path d="m190.1 38.7c0-.4 0-1 .1-1.7s.2-1.2.5-1.7c.2-.5.5-.8.9-1.2.4-.3.8-.5 1.2-.5s.8.2 1 .6c.3.4.4 1 .4 1.7s-.1 1.4-.2 2.2c-.2.7-.4 1.3-.6 1.6s-.5.6-.8.9c-.3.2-.6.4-1 .4s-.6-.1-.8-.3-.3-.5-.4-.9c-.2-.3-.3-.7-.3-1.1zm1.1 0c0 .6.1 1 .2 1.3s.3.4.6.4c.2 0 .3-.1.5-.2.1-.2.3-.4.4-.8s.2-.9.3-1.5.1-1.2.1-1.7c0-.6-.1-1.1-.2-1.3s-.3-.4-.5-.4-.4.1-.6.4-.3.8-.5 1.7c-.3.7-.3 1.4-.3 2.1z"/><path d="m194.6 34.7v-.3-.1c.1 0 .2-.1.4-.2s.4-.2.5-.3c0 0 0-.2.1-.4 0-.4.1-.6.1-.8s.1-.3.2-.5.3-.5.5-.8.5-.6.7-.9c.2-.2.4-.4.5-.5s.2-.1.4-.1c.1 0 .3 0 .4.1-.1.6-.2 1.3-.2 1.9l-.2.2c-.2-.6-.5-.8-.7-.8-.1 0-.2 0-.2.1-.1.1-.1.2-.2.3 0 .1-.1.5-.2.9-.1.5-.1 1-.2 1.4h.1.5c.3 0 .4-.1.5-.1v.1c-.1.3-.1.5-.1.7v.1c-.1 0-.3 0-.6 0-.2 0-.4 0-.5 0l-.3 2.5c-.1 1-.3 1.9-.4 2.7-.2 1.1-.4 1.8-.5 2.4-.2.5-.4 1-.7 1.5-.3.4-.5.7-.7.9-.1.1-.3.2-.4.2s-.2 0-.3-.1c.1-.6.2-1.1.3-1.6h.1c.1.4.3.7.4.7s.1 0 .2-.1.1-.1.2-.2c0-.1.1-.4.2-.9s.2-1.2.3-2.1l.3-2.8.3-2.9c-.2 0-.3 0-.4 0-.1-.1-.3-.1-.4-.2z"/></g></svg>